<svg width="40" height="40" viewBox="0 0 40 40" fill="none" xmlns="http://www.w3.org/2000/svg">
<circle opacity="0.3" cx="20" cy="20" r="20" fill="#ABD2D9"/>
<path d="M30.0625 21.4732C29.9872 21.7059 29.826 21.8952 29.6086 22.0066C29.4782 22.0732 29.3388 22.1067 29.1941 22.1067C28.8483 22.1067 28.5361 21.9154 28.3822 21.6132L26.4144 17.4571C26.3652 17.3531 26.2494 17.2974 26.1381 17.3225C26.0259 17.3476 25.9461 17.4477 25.9461 17.5631V21.6881V29.4461C25.9461 30.053 25.4534 30.547 24.8476 30.547H24.8204C24.2146 30.547 23.7218 30.053 23.7218 29.4461V22.8072C23.7218 22.6712 23.6117 22.5607 23.4758 22.5607C23.34 22.5607 23.2298 22.6712 23.2298 22.8072V29.4461C23.2298 30.053 22.737 30.547 22.1312 30.547H22.1041C21.4983 30.547 21.0054 30.053 21.0054 29.4461V21.6881V17.0153C21.0054 15.6655 22.1014 14.5671 23.4487 14.5671H23.4758H24.6964C26.1142 14.5671 27.3952 15.3534 28.0364 16.6126L30.0072 20.7746C30.1181 20.9925 30.1378 21.2404 30.0625 21.4732ZM20.5134 17.0153V29.4461C20.5134 30.053 20.0207 30.547 19.4149 30.547H19.3876C18.7818 30.547 18.2891 30.053 18.2891 29.4461V22.8072C18.2891 22.6712 18.1789 22.5607 18.0431 22.5607C17.9072 22.5607 17.7971 22.6712 17.7971 22.8072V29.4461C17.7971 30.053 17.3042 30.547 16.6984 30.547H16.6713C16.0655 30.547 15.5727 30.053 15.5727 29.4461V21.6881V17.5631C15.5727 17.4477 15.4929 17.3476 15.3807 17.3225C15.2686 17.2974 15.1536 17.3531 15.1044 17.4571L13.1398 21.6068C12.9828 21.9154 12.6705 22.1067 12.3248 22.1067C12.18 22.1067 12.0407 22.0732 11.9104 22.0066C11.4616 21.7769 11.2826 21.2242 11.5147 20.7681L13.4794 16.619C14.1238 15.3534 15.4047 14.5671 16.8225 14.5671H21.8242C21.0347 15.0946 20.5134 15.9953 20.5134 17.0153ZM15.7372 11.7638C15.7372 10.4898 16.7716 9.45305 18.0431 9.45305C19.3145 9.45305 20.3488 10.4898 20.3488 11.7638C20.3488 13.0377 19.3145 14.074 18.0431 14.074C16.7716 14.074 15.7372 13.0377 15.7372 11.7638ZM21.8936 14.074H19.6253C20.1818 13.6905 20.5932 13.1102 20.7594 12.4338C20.9256 13.1102 21.337 13.6905 21.8936 14.074ZM23.4758 9.45305C24.7472 9.45305 25.7816 10.4898 25.7816 11.7638C25.7816 13.0377 24.7472 14.074 23.4758 14.074C22.2043 14.074 21.17 13.0377 21.17 11.7638C21.17 10.4898 22.2043 9.45305 23.4758 9.45305ZM30.4486 20.5571L28.4777 16.3946C27.8013 15.066 26.5039 14.2047 25.0382 14.0883C25.783 13.584 26.2736 12.7301 26.2736 11.7638C26.2736 10.2177 25.0185 8.96004 23.4758 8.96004C22.1637 8.96004 21.0601 9.87013 20.7594 11.0933C20.4587 9.87013 19.3552 8.96004 18.0431 8.96004C16.5004 8.96004 15.2452 10.2177 15.2452 11.7638C15.2452 12.7301 15.7359 13.584 16.4807 14.0883C15.015 14.2047 13.7174 15.066 13.0381 16.4011L11.0734 20.5507C10.7211 21.2424 10.9962 22.0924 11.6867 22.4454C11.8841 22.5464 12.1047 22.5997 12.3248 22.5997C12.8563 22.5997 13.3366 22.3054 13.5812 21.8247L15.0806 18.6576V21.6881V29.4461C15.0806 30.3252 15.7942 31.04 16.6713 31.04H16.6984C17.2639 31.04 17.761 30.7428 18.0431 30.2961C18.3252 30.7428 18.8222 31.04 19.3876 31.04H19.4149C19.9802 31.04 20.4773 30.7428 20.7594 30.2961C21.0415 30.7428 21.5386 31.04 22.1041 31.04H22.1312C22.6966 31.04 23.1937 30.7428 23.4758 30.2961C23.758 30.7428 24.255 31.04 24.8204 31.04H24.8476C25.7246 31.04 26.4382 30.3252 26.4382 29.4461V21.6881V18.6576L27.9407 21.8311C28.1822 22.3054 28.6624 22.5997 29.1941 22.5997C29.4141 22.5997 29.6346 22.5464 29.8322 22.4454C30.1666 22.2743 30.4147 21.9834 30.5305 21.6255C30.6464 21.2676 30.6161 20.886 30.4486 20.5571Z" fill="#3A98B2"/>
</svg>
